<svg xmlns="http://www.w3.org/2000/svg" viewBox="0 0 200 220" fill="none">
  
  <path d="M40 178 C 60 198, 130 200, 162 165 C 178 148, 168 130, 150 138 C 132 146, 110 168, 90 176" stroke="currentColor" stroke-width="6" stroke-linecap="round" fill="none"></path>
  
  <path d="M120 16&#xA;           C 88 28, 70 60, 66 96&#xA;           C 64 120, 76 138, 88 154&#xA;           L 96 168&#xA;           L 110 168&#xA;           L 118 154&#xA;           C 134 134, 150 110, 154 80&#xA;           C 156 56, 144 28, 120 16 Z" fill="currentColor"></path>
  
  <path d="M104 168 L116 168 L112 60 L108 60 Z" fill="#FAFAF7" opacity="0.85"></path>
  
  <g stroke="#FAFAF7" stroke-width="3" stroke-linecap="round" opacity="0.7">
    <line x1="88" y1="80" x2="102" y2="68"></line>
    <line x1="86" y1="98" x2="104" y2="86"></line>
    <line x1="88" y1="118" x2="106" y2="106"></line>
    <line x1="94" y1="138" x2="110" y2="128"></line>
    <line x1="118" y1="80" x2="132" y2="72"></line>
    <line x1="120" y1="100" x2="134" y2="92"></line>
    <line x1="118" y1="120" x2="130" y2="114"></line>
  </g>
  
  <path d="M96 168 L103 184 L110 168 Z" fill="currentColor"></path>
</svg>